HIERARCHY
ROOT Hips
{
	OFFSET 0.000000 0.000000 0.000000
	CHANNELS 6 Xposition Yposition Zposition Zrotation Yrotation Xrotation 
	JOINT LowerBack
	{
		OFFSET 0.000000 0.000000 0.000000
		CHANNELS 3 Zrotation Yrotation Xrotation
		JOINT Spine
		{
			OFFSET 0.028270 2.035590 -0.193380
			CHANNELS 3 Zrotation Yrotation Xrotation
			JOINT Spine1
			{
				OFFSET 0.056720 2.048850 -0.042750
				CHANNELS 3 Zrotation Yrotation Xrotation
				JOINT Neck
				{
					OFFSET 0.000000 0.000000 0.000000
					CHANNELS 3 Zrotation Yrotation Xrotation
					JOINT Neck1
					{
						OFFSET -0.054170 1.746240 0.172020
						CHANNELS 3 Zrotation Yrotation Xrotation
						JOINT Head
						{
							OFFSET 0.104070 1.761360 -0.123970
							CHANNELS 3 Zrotation Yrotation Xrotation
							End Site
							{
								OFFSET 0.000000 0.000000 0.000000
							}
						}
					}
				}
				JOINT LeftShoulder
				{
					OFFSET 0.000000 0.000000 0.000000
					CHANNELS 3 Zrotation Yrotation Xrotation
					JOINT LeftArm
					{
						OFFSET 3.362410 1.200890 -0.311210
						CHANNELS 3 Zrotation Yrotation Xrotation
						JOINT LeftForeArm
						{
							OFFSET 4.983000 -0.000000 -0.000000
							CHANNELS 3 Zrotation Yrotation Xrotation
							JOINT LeftHand
							{
								OFFSET 3.483560 -0.000000 -0.000000
								CHANNELS 3 Zrotation Yrotation Xrotation
								JOINT LeftFingerBase
								{
									OFFSET 0.000000 0.000000 0.000000
									CHANNELS 3 Zrotation Yrotation Xrotation
									JOINT LeftHandIndex1
									{
										OFFSET 0.715260 -0.000000 -0.000000
										CHANNELS 3 Zrotation Yrotation Xrotation
										End Site
										{
											OFFSET 0.000000 0.000000 0.000000
										}
									}
								}
								JOINT LThumb
								{
									OFFSET 0.000000 0.000000 0.000000
									CHANNELS 3 Zrotation Yrotation Xrotation
									End Site
									{
										OFFSET 0.000000 0.000000 0.000000
									}
								}
							}
						}
					}
				}
				JOINT RightShoulder
				{
					OFFSET 0.000000 0.000000 0.000000
					CHANNELS 3 Zrotation Yrotation Xrotation
					JOINT RightArm
					{
						OFFSET -3.136600 1.374050 -0.404650
						CHANNELS 3 Zrotation Yrotation Xrotation
						JOINT RightForeArm
						{
							OFFSET -5.241900 -0.000000 -0.000000
							CHANNELS 3 Zrotation Yrotation Xrotation
							JOINT RightHand
							{
								OFFSET -3.444170 -0.000000 -0.000000
								CHANNELS 3 Zrotation Yrotation Xrotation
								JOINT RightFingerBase
								{
									OFFSET 0.000000 0.000000 0.000000
									CHANNELS 3 Zrotation Yrotation Xrotation
									JOINT RightHandIndex1
									{
										OFFSET -0.622530 -0.000000 -0.000000
										CHANNELS 3 Zrotation Yrotation Xrotation
										End Site
										{
											OFFSET 0.000000 0.000000 0.000000
										}
									}
								}
								JOINT RThumb
								{
									OFFSET 0.000000 0.000000 0.000000
									CHANNELS 3 Zrotation Yrotation Xrotation
									End Site
									{
										OFFSET 0.000000 0.000000 0.000000
									}
								}
							}
						}
					}
				}
			}
		}
	}
}
}
MOTION
Frames: 14
Frame Time: 0.008333
0.029521 17.130735 -1.550703 167.992593 -82.252286 -156.052556 0.020602 -1.574013 -6.406914 -0.552120 -1.702824 -4.528489 -5.682703 -1.751353 -2.273809 6.328599 -1.892084 -1.780139 -2.972652 -0.289068 1.631974 0.000000 0.000000 0.000000 3.205501 1.535101 1.226091 -53.498795 -32.611350 -5.557425 -0.359504 -65.091594 -0.065873 7.691496 6.666576 0.426075 -0.097389 0.429267 0.000000 0.000000 0.000000 0.000000 0.000000 0.000000 0.000000 7.867069 2.515426 -1.578855 74.683588 42.164210 11.031569 -0.341825 50.251901 -0.062361 -6.761873 11.954394 -0.735472 -0.029526 -0.499268 -0.000000 0.000000 0.000000 0.000000 0.000000 0.000000 0.000000 
0.025971 17.123603 -1.585436 168.183704 -81.986195 -156.393266 0.067891 -1.533632 -6.387316 -0.566404 -1.671701 -4.504713 -5.797222 -1.728711 -2.122337 6.501693 -1.703966 -1.883890 -3.062958 -0.292939 1.597293 0.000000 0.000000 0.000000 2.841883 1.492350 1.500308 -53.741050 -31.275023 -4.631869 -0.542061 -62.859605 -0.058722 7.062272 7.875353 0.470525 -0.103162 0.385822 0.000000 0.000000 0.000000 0.000000 0.000000 0.000000 0.000000 8.581554 2.767126 -1.443324 75.002704 40.851905 11.329748 -0.149598 48.396934 -0.051057 -5.978901 11.136900 -0.605268 -0.025136 -0.464461 -0.000000 0.000000 0.000000 0.000000 0.000000 0.000000 0.000000 
0.020951 17.116634 -1.619856 168.385562 -81.713900 -156.746163 0.123723 -1.491046 -6.371948 -0.579401 -1.639531 -4.480851 -5.912998 -1.704818 -1.966269 6.673606 -1.525399 -1.988545 -3.158283 -0.297142 1.562043 0.000000 0.000000 0.000000 2.462029 1.497123 1.753360 -54.016700 -29.962117 -3.695717 -0.752921 -60.563808 -0.052895 6.439051 8.910839 0.491679 -0.108695 0.346323 0.000000 0.000000 0.000000 0.000000 0.000000 0.000000 0.000000 9.313144 2.976671 -1.318243 75.287803 39.505390 11.548329 0.053367 46.572998 -0.041353 -5.266502 10.424746 -0.498565 -0.020281 -0.431494 -0.000000 0.000000 0.000000 0.000000 0.000000 0.000000 0.000000 
0.014624 17.109817 -1.653811 168.605269 -81.433689 -157.120492 0.189570 -1.446437 -6.357382 -0.590559 -1.606501 -4.456816 -6.028175 -1.679750 -1.808243 6.840704 -1.355134 -2.093485 -3.257760 -0.301645 1.526436 0.000000 0.000000 0.000000 2.070895 1.549911 1.980368 -54.327697 -28.670183 -2.755295 -0.988199 -58.196245 -0.048381 5.856074 9.734010 0.493241 -0.114193 0.311343 0.000000 0.000000 0.000000 0.000000 0.000000 0.000000 0.000000 10.052213 3.144501 -1.204482 75.540533 38.127112 11.686814 0.262707 44.770201 -0.033201 -4.636064 9.840376 -0.413960 -0.014992 -0.400727 -0.000000 0.000000 0.000000 0.000000 0.000000 0.000000 0.000000 
0.007198 17.103086 -1.687082 168.854697 -81.143251 -157.529929 0.267599 -1.399662 -6.340126 -0.599241 -1.572580 -4.432495 -6.140999 -1.653353 -1.650913 6.999833 -1.191482 -2.198005 -3.360597 -0.306425 1.490718 0.000000 0.000000 0.000000 1.673580 1.649332 2.177478 -54.675303 -27.395468 -1.815382 -1.242643 -55.753472 -0.045032 5.341900 10.326679 0.481105 -0.119734 0.280987 0.000000 0.000000 0.000000 0.000000 0.000000 0.000000 0.000000 10.790107 3.273210 -1.101897 75.758583 36.721061 11.744387 0.474409 42.978875 -0.026459 -4.093406 9.389365 -0.348456 -0.009321 -0.372286 0.000000 0.000000 0.000000 0.000000 0.000000 0.000000 0.000000 
-0.001108 17.096359 -1.719450 169.146707 -80.839882 -157.988298 0.360227 -1.350389 -6.316690 -0.604859 -1.537634 -4.407908 -6.250224 -1.625403 -1.497382 7.148480 -1.029143 -2.300440 -3.466233 -0.311487 1.455401 0.000000 0.000000 0.000000 1.274264 1.792362 2.342610 -55.060444 -26.130875 -0.879298 -1.510069 -53.238748 -0.042584 4.913834 10.691942 0.461174 -0.125229 0.254945 0.000000 0.000000 0.000000 0.000000 0.000000 0.000000 0.000000 11.519435 3.370557 -1.009638 75.937475 35.287464 11.711494 0.685008 41.195585 -0.020906 -3.631095 9.063968 -0.298150 -0.003474 -0.346119 0.000000 0.000000 0.000000 0.000000 0.000000 0.000000 0.000000 
-0.010104 17.089498 -1.750667 169.490468 -80.521291 -158.504642 0.469477 -1.298144 -6.284627 -0.607015 -1.501408 -4.383003 -6.355106 -1.595544 -1.349689 7.285579 -0.867632 -2.400168 -3.574745 -0.316869 1.420718 0.000000 0.000000 0.000000 0.877292 1.973482 2.474756 -55.482505 -24.866424 0.049819 -1.783341 -50.664449 -0.040734 4.576124 10.854562 0.438445 -0.130435 0.232575 0.000000 0.000000 0.000000 0.000000 0.000000 0.000000 0.000000 12.238167 3.440623 -0.925734 76.069585 33.832551 11.589283 0.891895 39.415819 -0.016333 -3.244171 8.844302 -0.259747 0.002458 -0.322013 -0.000000 0.000000 0.000000 0.000000 0.000000 0.000000 0.000000 
-0.019517 17.082447 -1.780607 169.887745 -80.184903 -159.081775 0.597026 -1.242315 -6.242163 -0.605599 -1.463558 -4.358505 -6.456334 -1.563484 -1.212167 7.411232 -0.689426 -2.493092 -3.686148 -0.322629 1.387806 0.000000 0.000000 0.000000 0.481819 2.192735 2.576455 -55.935885 -23.598341 0.976401 -2.055831 -48.045684 -0.039221 4.321823 10.856971 0.416016 -0.135099 0.213100 0.000000 0.000000 0.000000 0.000000 0.000000 0.000000 0.000000 12.942481 3.506902 -0.849176 76.149583 32.338226 11.325709 1.092463 37.663161 -0.012433 -2.884495 8.697637 -0.227044 0.007764 -0.299697 -0.000000 0.000000 0.000000 0.000000 0.000000 0.000000 0.000000 
-0.029088 17.075044 -1.809020 170.341204 -79.830188 -159.723391 0.742981 -1.183295 -6.184674 -0.600225 -1.424331 -4.333228 -6.551319 -1.529318 -1.084007 7.524476 -0.521142 -2.583182 -3.800985 -0.328814 1.355744 0.000000 0.000000 0.000000 0.098918 2.424124 2.646372 -56.429111 -22.286074 1.882582 -2.318369 -45.424535 -0.037733 4.119930 10.752167 0.394285 -0.138626 0.195622 0.000000 0.000000 0.000000 0.000000 0.000000 0.000000 0.000000 13.637509 3.546495 -0.774456 76.161897 30.842572 11.017715 1.285670 35.909670 -0.009253 -2.612090 8.594719 -0.203141 0.013428 -0.278831 -0.000000 0.000000 0.000000 0.000000 0.000000 0.000000 0.000000 
-0.038778 17.067392 -1.836009 170.831909 -79.455947 -160.407550 0.906105 -1.120925 -6.115424 -0.591744 -1.383709 -4.308928 -6.643422 -1.493247 -0.969308 7.628599 -0.331859 -2.664906 -3.919765 -0.335514 1.325993 0.000000 0.000000 0.000000 -0.280618 2.682133 2.691454 -56.946641 -20.941893 2.786540 -2.566631 -42.819558 -0.036210 3.948626 10.599343 0.373649 -0.140946 0.179531 0.000000 0.000000 0.000000 0.000000 0.000000 0.000000 0.000000 14.323096 3.598896 -0.702612 76.106175 29.300960 10.556418 1.469614 34.215047 -0.006450 -2.333300 8.492201 -0.179341 0.018140 -0.259158 -0.000000 0.000000 0.000000 0.000000 0.000000 0.000000 0.000000 
-0.048560 17.059497 -1.861549 171.349289 -79.062723 -161.122535 1.083910 -1.056100 -6.033839 -0.580579 -1.342267 -4.285114 -6.732217 -1.455814 -0.866443 7.725188 -0.141399 -2.742199 -4.043214 -0.342778 1.297601 0.000000 0.000000 0.000000 -0.652435 2.953318 2.713234 -57.489586 -19.539474 3.678662 -2.794173 -40.273070 -0.034558 3.770234 10.454172 0.353007 -0.141747 0.164306 0.000000 0.000000 0.000000 0.000000 0.000000 0.000000 0.000000 15.007055 3.649628 -0.630529 75.974952 27.734284 9.998746 1.644147 32.574794 -0.004053 -2.076203 8.368472 -0.157342 0.022424 -0.240492 -0.000000 0.000000 0.000000 0.000000 0.000000 0.000000 0.000000 
-0.058456 17.051532 -1.885789 171.873837 -78.651550 -161.846722 1.272915 -0.990178 -5.941878 -0.567406 -1.300969 -4.261994 -6.818052 -1.418034 -0.774452 7.815707 0.041600 -2.817325 -4.171424 -0.350629 1.270054 0.000000 0.000000 0.000000 -1.016655 3.233437 2.714880 -58.054859 -18.063805 4.553561 -2.996844 -37.820507 -0.032783 3.550842 10.363900 0.330660 -0.140958 0.149692 0.000000 0.000000 0.000000 0.000000 0.000000 0.000000 0.000000 15.692717 3.696072 -0.557228 75.767596 26.144281 9.363249 1.809059 31.002022 -0.002024 -1.842201 8.205547 -0.137045 0.026380 -0.222718 -0.000000 0.000000 0.000000 0.000000 0.000000 0.000000 0.000000 
-0.068483 17.043706 -1.908941 172.382896 -78.224935 -162.557088 1.469222 -0.925094 -5.841746 -0.552888 -1.261258 -4.239696 -6.901526 -1.381394 -0.692046 7.900688 0.219269 -2.891796 -4.303555 -0.359017 1.242993 0.000000 0.000000 0.000000 -1.379081 3.534104 2.700807 -58.635460 -16.521833 5.414392 -3.173694 -35.481789 -0.030963 3.262086 10.362624 0.304908 -0.138754 0.135691 0.000000 0.000000 0.000000 0.000000 0.000000 0.000000 0.000000 16.377253 3.747101 -0.484159 75.489505 24.518574 8.640175 1.963673 29.521167 -0.000323 -1.621876 7.984814 -0.117650 0.029930 -0.205749 -0.000000 0.000000 0.000000 0.000000 0.000000 0.000000 0.000000 
-0.078784 17.036266 -1.931233 172.859275 -77.785576 -163.235036 1.668111 -0.863002 -5.736319 -0.537663 -1.224659 -4.217807 -6.982012 -1.347351 -0.615435 7.980124 0.367402 -2.971233 -4.438729 -0.367882 1.215064 0.000000 0.000000 0.000000 -1.737551 3.848537 2.671763 -59.232269 -14.898085 6.240052 -3.322759 -33.284122 -0.029166 2.884803 10.470907 0.274052 -0.135307 0.122364 0.000000 0.000000 0.000000 0.000000 0.000000 0.000000 0.000000 17.061125 3.782054 -0.411248 75.149006 22.879372 7.882423 2.109287 28.115836 0.001039 -1.446162 7.722613 -0.101657 0.033537 -0.189648 -0.000000 0.000000 0.000000 0.000000 0.000000 0.000000 0.000000 
